# xmcd CD database file
#
# Track frame offsets:
#	150
#	11670
#	23505
#	35585
#	48755
#	61820
#	74105
#	86767
#	99172
#	112150
#	125427
#
# Disc length: 1881 seconds
#
# Revision: 13
# Processed by: cddbd v1.5.2PL0 Copyright (c) Steve Scherf et al.
# Submitted via: CDex 1.70beta2
#
DISCID=8d07570b
DTITLE=Diana Ross and The Supremes - The Best of Diana Ross and The Supremes - 20th Century Masters
DYEAR=1999
DGENRE=Oldies
TTITLE0=Where Did Our Love Go
TTITLE1=Baby Love
TTITLE2=Come See About Me
TTITLE3=Stop! In The Name Of Love
TTITLE4=Back In My Arms Again
TTITLE5=I Hear A Symphony
TTITLE6=You Can't Hurry Love
TTITLE7=You Keep Me Hangin' On
TTITLE8=Reflections
TTITLE9=Love Child
TTITLE10=Someday We'll Be Together
EXTD=YEAR: 1999
EXTT0=
EXTT1=
EXTT2=
EXTT3=
EXTT4=
EXTT5=
EXTT6=
EXTT7=
EXTT8=
EXTT9=
EXTT10=
PLAYORDER=
